<?xml version="1.0" encoding="UTF-8" standalone="no"?>
<!-- Created with Inkscape (http://www.inkscape.org/) -->

<svg
   xmlns:dc="http://purl.org/dc/elements/1.1/"
   xmlns:cc="http://creativecommons.org/ns#"
   xmlns:rdf="http://www.w3.org/1999/02/22-rdf-syntax-ns#"
   xmlns:svg="http://www.w3.org/2000/svg"
   xmlns="http://www.w3.org/2000/svg"
   xmlns:sodipodi="http://sodipodi.sourceforge.net/DTD/sodipodi-0.dtd"
   xmlns:inkscape="http://www.inkscape.org/namespaces/inkscape"
   width="16px"
   height="16px"
   id="svg2985"
   version="1.1"
   inkscape:version="0.48.4 r9939"
   inkscape:export-filename="C:\Users\Udo\Desktop\warping.png"
   inkscape:export-xdpi="90"
   inkscape:export-ydpi="90"
   sodipodi:docname="Neues Dokument 2">
  <defs
     id="defs2987">
    <inkscape:perspective
       sodipodi:type="inkscape:persp3d"
       inkscape:vp_x="0 : 8 : 1"
       inkscape:vp_y="0 : 1000 : 0"
       inkscape:vp_z="16 : 8 : 1"
       inkscape:persp3d-origin="8 : 5.3333333 : 1"
       id="perspective2997" />
  </defs>
  <sodipodi:namedview
     id="base"
     pagecolor="#ffffff"
     bordercolor="#666666"
     borderopacity="1.0"
     inkscape:pageopacity="0.0"
     inkscape:pageshadow="2"
     inkscape:zoom="22.197802"
     inkscape:cx="-0.62698027"
     inkscape:cy="8"
     inkscape:current-layer="layer1"
     showgrid="true"
     inkscape:grid-bbox="true"
     inkscape:document-units="px"
     inkscape:window-width="1292"
     inkscape:window-height="745"
     inkscape:window-x="66"
     inkscape:window-y="-8"
     inkscape:window-maximized="1" />
  <metadata
     id="metadata2990">
    <rdf:RDF>
      <cc:Work
         rdf:about="">
        <dc:format>image/svg+xml</dc:format>
        <dc:type
           rdf:resource="http://purl.org/dc/dcmitype/StillImage" />
        <dc:title></dc:title>
      </cc:Work>
    </rdf:RDF>
  </metadata>
  <g
     id="layer1"
     inkscape:label="Layer 1"
     inkscape:groupmode="layer">
    <path
       style="fill:none;stroke:#000000;stroke-width:1px;stroke-linecap:butt;stroke-linejoin:miter;stroke-opacity:1"
       d="m 0.04504951,10.999505 c 0.18019802,0 0.36039604,0 0.54059406,0 0.0150165,0 0.030033,0 0.0450495,0 0.0150165,0 0.0344312,-0.01062 0.0450495,0 0.0106183,0.01062 -0.0106183,0.03443 0,0.04505 0.0106183,0.01062 0.0344312,-0.01062 0.0450495,0 0.0106183,0.01062 -0.0106183,0.03443 0,0.04505 0.0212365,0.02124 0.0688625,-0.02124 0.090099,0 0.0106183,0.01062 -0.0106183,0.03443 0,0.04505 0.0212365,0.02124 0.0632367,-0.01343 0.090099,0 0.0189945,0.0095 0.026055,0.03555 0.0450495,0.04505 0.0134312,0.0067 0.0344312,-0.01062 0.0450495,0 0.0106183,0.01062 -0.0106183,0.03443 0,0.04505 0.0212366,0.02124 0.0688625,-0.02124 0.090099,0 0.010618,0.01062 -0.010618,0.03443 0,0.04505 0.010618,0.01062 0.034431,-0.01062 0.045049,0 0.010618,0.01062 -0.010618,0.03443 0,0.04505 0.010618,0.01062 0.034431,-0.01062 0.045049,0 0.010618,0.01062 -0.010618,0.03443 0,0.04505 0.021237,0.02124 0.068863,-0.02124 0.090099,0 0.010618,0.01062 -0.010618,0.03443 0,0.04505 0.010618,0.01062 0.034431,-0.01062 0.04505,0 0.010618,0.01062 -0.010618,0.03443 0,0.04505 0.010618,0.01062 0.034431,-0.01062 0.045049,0 0.010618,0.01062 -0.010618,0.03443 0,0.04505 0.010618,0.01062 0.034431,-0.01062 0.045049,0 0.021237,0.02124 -0.021237,0.06886 0,0.0901 0.021237,0.02124 0.068862,-0.02124 0.090099,0 0.010618,0.01062 -0.010618,0.03443 0,0.04505 0.010618,0.01062 0.034431,-0.01062 0.045049,0 0.010618,0.01062 -0.010618,0.03443 0,0.04505 0.010618,0.01062 0.034431,-0.01062 0.045049,0 0.010618,0.01062 -0.010618,0.03443 0,0.04505 0.021237,0.02124 0.068863,-0.02124 0.090099,0 0.010618,0.01062 -0.010618,0.03443 0,0.04505 0.010618,0.01062 0.034431,-0.01062 0.04505,0 0.010618,0.01062 -0.010618,0.03443 0,0.04505 0.010618,0.01062 0.034431,-0.01062 0.045049,0 0.022525,0.02252 -0.022525,0.112624 0,0.135149 0.010618,0.01062 0.034431,-0.01062 0.045049,0 0.010618,0.01062 0,0.03003 0,0.04505 0,0.01502 0,0.03003 0,0.04505 0,0.01502 -0.010618,0.03443 0,0.04505 0.010618,0.01062 0.045049,-0.01502 0.045049,0 0,0.01502 -0.030033,0 -0.045049,0"
       id="path2993"
       inkscape:connector-curvature="0" />
    <path
       style="fill:none;stroke:#000000;stroke-width:1px;stroke-linecap:butt;stroke-linejoin:miter;stroke-opacity:1"
       d="m 3.5138614,13.792574 c 0.2719279,-0.02302 -0.00909,0.171105 0.045049,0.225248 0.010618,0.01062 0.034431,-0.01062 0.04505,0 0.010618,0.01062 -0.010618,0.03443 0,0.04505 0.010618,0.01062 0.034431,-0.01062 0.045049,0 0.010618,0.01062 -0.00672,0.03162 0,0.04505 0.0095,0.01899 0.035552,0.02606 0.04505,0.04505 0.00672,0.01343 -0.00672,0.03162 0,0.04505 0.0095,0.01899 0.035552,0.02605 0.04505,0.04505 0.00672,0.01343 -0.010618,0.03443 0,0.04505 0.010618,0.01062 0.034431,-0.01062 0.045049,0 0.021237,0.02124 -0.013431,0.06324 0,0.0901 0.045556,0.09111 0.1045453,0.01445 0.1351486,0.04505 0.015213,0.01521 -0.015213,0.07489 0,0.0901 0.021237,0.02124 0.068862,-0.02124 0.090099,0 0.010618,0.01062 -0.00672,0.03162 0,0.04505 0.0095,0.01899 0.035552,0.02606 0.04505,0.04505 0.00672,0.01343 -0.010618,0.03443 0,0.04505 0.010618,0.01062 0.034431,-0.01062 0.045049,0 0.010618,0.01062 -0.010618,0.03443 0,0.04505 0.010618,0.01062 0.034431,-0.01062 0.04505,0 0.1758163,0.175817 -0.010428,0.02419 0.04505,0.135149 0.0095,0.01899 0.035552,0.02605 0.04505,0.04505 0.00672,0.01343 -0.00672,0.03162 0,0.04505 0.0095,0.01899 0.035552,0.02605 0.045049,0.04505 0.013431,0.02686 -0.021236,0.06886 0,0.0901 0.093209,0.09321 -0.00364,-0.142435 0.090099,0.04505 0.00672,0.01343 -0.00672,0.03162 0,0.04505 0.0095,0.019 0.035552,0.02605 0.04505,0.04505 0.013431,0.02686 -0.021237,0.06886 0,0.0901 0.010618,0.01062 0.034431,-0.01062 0.04505,0 0.010618,0.01062 -0.00672,0.03162 0,0.04505 0.0095,0.019 0.035552,0.02606 0.045049,0.04505 0.00672,0.01343 -0.010618,0.03443 0,0.04505 0.010618,0.01062 0.034431,-0.01062 0.04505,0 0.021237,0.02124 -0.021236,0.06886 0,0.0901 0.010618,0.01062 0.034431,-0.01062 0.04505,0 0,0.120132 -0.015016,-0.01502 0.04505,0.04505 0.021237,0.02124 -0.013431,0.06324 0,0.0901 0.0095,0.01899 0.035552,0.02605 0.04505,0.04505 0.010178,0.02036 0,0.231702 0,0.270297 0,0.01502 0,0.03003 0,0.04505 0,0.01502 0.015017,0.04505 0,0.04505 -0.015016,0 0,-0.03003 0,-0.04505"
       id="path2995"
       inkscape:connector-curvature="0" />
    <path
       style="fill:#92ff00;fill-opacity:1;stroke:#00f800;stroke-width:1px;stroke-linecap:butt;stroke-linejoin:miter;stroke-opacity:1"
       d="m 1.5896098,12.381712 c 0.1046587,-0.05383 0.1770327,-0.417428 0.2784814,-0.370002 0.148401,0.06937 0.1074208,0.0085 0.2275436,0.08413 0.1052774,0.06625 -0.018632,0.02623 0.093629,0.132728 0.1418706,0.134583 0.03675,-0.0273 0.1813225,0.04029 0.060931,0.02848 0.2539516,0.257542 0.3235466,0.306928 0.027384,0.01943 0.063871,0.02323 0.091255,0.04266 0.041149,0.0292 0.1348159,0.151981 0.1848838,0.175387 0.013603,0.0063 0.034139,-0.01152 0.045033,-0.0012 0.010894,0.01034 -0.00588,0.03179 0.00119,0.04503 0.098651,0.18495 -0.00438,-0.04806 0.091255,0.04266 0.010894,0.01034 -0.00971,0.0347 0.00119,0.04503 0.010894,0.01034 0.034139,-0.01152 0.045034,-0.0012 0.010894,0.01034 -0.00971,0.0347 0.00119,0.04503 0.010894,0.01034 0.034139,-0.01152 0.045034,-0.0012 0.010894,0.01034 -0.00971,0.0347 0.00119,0.04504 0.010894,0.01034 0.034139,-0.01152 0.045033,-0.0012 0.021789,0.02067 -0.019415,0.0694 0.00237,0.09007 0.010894,0.01034 0.034139,-0.01152 0.045034,-0.0012 0.010894,0.01034 -0.00971,0.0347 0.00119,0.04503 0.010894,0.01034 0.034139,-0.01152 0.045033,-0.0012 0.010894,0.01034 -0.00971,0.0347 0.00119,0.04504 0.010894,0.01034 0.034139,-0.01152 0.045034,-0.0012 0.014312,0.01358 -0.00838,0.211592 0.00594,0.225168 0.010894,0.01034 0.034139,-0.01152 0.045034,-0.0012 0.010894,0.01034 -0.00971,0.0347 0.00119,0.04504 0.010894,0.01034 0.034139,-0.01152 0.045033,-0.0012 0.012648,0.012 -0.00811,0.156027 0.00475,0.180135 0.01,0.01873 0.036226,0.02511 0.046222,0.04385 0.014134,0.0265 -0.019415,0.0694 0.00237,0.09007 0.021789,0.02067 0.068278,-0.02305 0.090068,-0.0024 0.010894,0.01034 -0.00971,0.0347 0.00119,0.04503 0.010894,0.01034 0.034139,-0.01152 0.045033,-0.0012 0.010894,0.01034 -0.00971,0.0347 0.00119,0.04504 0.010894,0.01034 0.034139,-0.01152 0.045034,-0.0012 0.010894,0.01034 -0.00971,0.0347 0.00119,0.04504 0.010894,0.01034 0.034139,-0.01152 0.045034,-0.0012 0.021789,0.02067 -0.019415,0.0694 0.00237,0.09007 0.010894,0.01034 0.034139,-0.01152 0.045033,-0.0012 0.021789,0.02067 -0.019415,0.0694 0.00237,0.09007 0.061628,0.05847 0.043056,-0.07624 0.046221,0.04385"
       id="path3017"
       inkscape:connector-curvature="0"
       sodipodi:nodetypes="ccccccccccccccccccccccccccccccccccccccccc" />
    <path
       style="fill:none;stroke:#000000;stroke-width:1px;stroke-linecap:butt;stroke-linejoin:miter;stroke-opacity:1"
       d="m 5.6762377,7.2153465 c 0.049103,0.2214082 0.1951259,0.360263 0.3153465,0.540594 0.04857,0.072855 0.076976,0.159804 0.1351485,0.2252475 0.5202606,0.5852932 -0.084444,-0.2984191 0.4504951,0.4504951 0.1646827,0.2305557 0.2933314,0.4850466 0.450495,0.7207921 0.1433089,0.2149632 0.2929741,0.4259157 0.4504951,0.6306931 0.071509,0.092961 0.1548779,0.1764709 0.2252475,0.2702967 0.5920125,0.78935 -0.1993433,-0.2314404 0.3153466,0.540594 0.082459,0.123689 0.226153,0.196422 0.3153465,0.315347 0.040294,0.05373 0.051065,0.125551 0.090099,0.180198 0.037031,0.05184 0.096923,0.08418 0.1351485,0.135148 0.1422517,0.189669 0.099411,0.203101 0.2252475,0.360396 0.147995,0.184994 0.04154,-0.0174 0.1801981,0.225248 0.033319,0.05831 0.05678,0.12189 0.090099,0.180198 0.053725,0.09402 0.1264733,0.176279 0.180198,0.270297 0.066637,0.116615 0.1135608,0.243781 0.180198,0.360396 0.2582113,0.387317 -0.051364,-0.102729 0.1351485,0.270297 0.024213,0.04843 0.069991,0.08488 0.090099,0.135149 0.011154,0.02788 -0.011154,0.06221 0,0.0901 0.110697,0.276742 0.040449,0.04045 0.1801981,0.180198 0.023743,0.02374 0.024903,0.06324 0.04505,0.0901 0.1948528,0.194852 0.00706,-0.01193 0.1351488,0.180198 0.01178,0.01767 0.03555,0.02605 0.04505,0.04505 0.0067,0.01343 -0.01062,0.03443 0,0.04505 0.02374,0.02374 0.06636,0.02131 0.0901,0.04505 0.02374,0.02374 0.02642,0.06216 0.04505,0.0901 0.02356,0.03534 0.07667,0.04981 0.0901,0.0901 0.0095,0.02849 -0.0095,0.06161 0,0.0901 0.01779,0.05336 0.10982,0.08449 0.135149,0.135149 0.01216,0.02432 -0.01216,0.06578 0,0.0901 0.02703,0.05406 0.108119,0.08109 0.135148,0.135148 0.01343,0.02686 -0.02124,0.06886 0,0.0901 0.01062,0.01062 0.03443,-0.01062 0.04505,0 0.01062,0.01062 -0.01062,0.03443 0,0.04505 0.01062,0.01062 0.03443,-0.01062 0.04505,0 0.02124,0.02124 -0.02124,0.06886 0,0.0901 0.01062,0.01062 0.03443,-0.01062 0.04505,0 0.01521,0.01521 -0.01521,0.07489 0,0.0901 0.01062,0.01062 0.03443,-0.01062 0.04505,0 0.02124,0.02124 -0.01343,0.06324 0,0.0901 0.0095,0.01899 0.03555,0.02605 0.04505,0.04505 0.0067,0.01343 -0.0067,0.03162 0,0.04505 0.0095,0.01899 0.03555,0.02605 0.04505,0.04505 0.0067,0.01343 -0.0067,0.03162 0,0.04505 0.019,0.03799 0.07667,0.0498 0.0901,0.0901 0.0095,0.02849 -0.01343,0.06324 0,0.0901 0.0067,0.01343 0.03443,-0.01062 0.04505,0 0.01062,0.01062 -0.01062,0.03443 0,0.04505 0.01062,0.01062 0.03443,-0.01062 0.04505,0 0.01062,0.01062 -0.01062,0.03443 0,0.04505 0.01062,0.01062 0.03162,-0.0067 0.04505,0 0.187485,0.09374 -0.04816,-0.0031 0.04505,0.0901 0.01062,0.01062 0.03162,-0.0067 0.04505,0 0.01899,0.0095 0.02605,0.03555 0.04505,0.04505 0.02686,0.01343 0.06886,-0.02124 0.0901,0 0.01062,0.01062 -0.01062,0.03443 0,0.04505 0.01062,0.01062 0.03443,-0.01062 0.04505,0 0.01062,0.01062 -0.01062,0.03443 0,0.04505 0.02124,0.02124 0.06886,-0.02124 0.0901,0 0.01062,0.01062 -0.01062,0.03443 0,0.04505 0.02083,0.02083 0.107949,-0.0136 0.135148,0 0.01899,0.0095 0.02605,0.03555 0.04505,0.04505 0.02686,0.01343 0.06886,-0.02124 0.0901,0 0.01062,0.01062 -0.01062,0.03443 0,0.04505 0.02124,0.02124 0.06886,-0.02124 0.0901,0 0.01062,0.01062 -0.01062,0.03443 0,0.04505 0.01062,0.01062 0.03443,-0.01062 0.04505,0 0.01062,0.01062 -0.01062,0.03443 0,0.04505 0.01062,0.01062 0.03443,-0.01062 0.04505,0 0.01062,0.01062 -0.01062,0.03443 0,0.04505 0.01062,0.01062 0.03443,-0.01062 0.04505,0 0.01062,0.01062 -0.0067,0.03162 0,0.04505 0.0095,0.01899 0.03555,0.02605 0.04505,0.04505 0.0067,0.01343 -0.01062,0.03443 0,0.04505 0.02124,0.02124 0.06886,-0.02124 0.0901,0 0.002,0.002 0,0.204007 0,0.225248"
       id="path3787"
       inkscape:connector-curvature="0" />
    <path
       style="fill:none;stroke:#000000;stroke-width:1px;stroke-linecap:butt;stroke-linejoin:miter;stroke-opacity:1"
       d="m 9.1450496,5.9990098 c 0.091851,0.1172289 0.2201794,0.201146 0.3153465,0.3153465 0.034661,0.041594 0.054863,0.09404 0.090099,0.1351486 0.055282,0.064496 0.120132,0.120132 0.1801981,0.180198 0.075083,0.075082 0.1463225,0.154215 0.2252475,0.2252475 0.071469,0.064323 0.1609253,0.1087284 0.2252473,0.180198 0.07244,0.080488 0.111628,0.1864887 0.180198,0.2702971 0.06724,0.082181 0.150165,0.150165 0.225248,0.2252475 0.07508,0.075082 0.150165,0.150165 0.225247,0.2252475 0.454266,0.4542653 -0.106131,-0.1193972 0.360396,0.4054456 0.140767,0.158363 0.310971,0.2910384 0.450495,0.450495 0.06332,0.072362 0.116882,0.1528854 0.180198,0.2252475 0.04195,0.047946 0.09436,0.086206 0.135149,0.1351486 0.0093,0.011214 0.176071,0.2669952 0.180198,0.270297 0.03708,0.029665 0.09807,0.015385 0.135148,0.045049 0.103032,0.082425 0.151324,0.2945594 0.225248,0.4054456 0.01178,0.01767 0.03555,0.026055 0.04505,0.04505 0.02124,0.042473 0.02741,0.091058 0.04505,0.1351485 0.01247,0.031176 0.03846,0.057173 0.04505,0.090099 0.0088,0.044175 -0.01093,0.091444 0,0.1351487 0.0052,0.0206 0.0399,0.02445 0.04505,0.04505 0.01093,0.04371 -0.0088,0.09097 0,0.135149 0.0066,0.03293 0.03003,0.06007 0.04505,0.0901 0.04505,0.0901 0.103293,0.174732 0.135148,0.270297 0.01958,0.05874 0.02804,0.120665 0.04505,0.180198 0.0747,0.261468 0.01035,0.02588 0.0901,0.225247 0.01764,0.04409 0.02381,0.09268 0.04505,0.135149 0.02421,0.04843 0.06589,0.08672 0.0901,0.135148 0.04247,0.08495 0.05483,0.182118 0.0901,0.270297 0.02494,0.06235 0.07693,0.114347 0.0901,0.180198 0.0088,0.04418 -0.0088,0.09097 0,0.135149 0.0066,0.03293 0.03258,0.05892 0.04505,0.0901 0.01764,0.04409 0.01656,0.09716 0.04505,0.135149 0.02015,0.02686 0.06636,0.02131 0.0901,0.04505 0.02374,0.02374 0.0249,0.06324 0.04505,0.0901 0.04873,0.06498 0.134758,0.112039 0.180198,0.180198 0.01863,0.02794 0.0249,0.06324 0.04505,0.0901 0.06187,0.08249 0.167934,0.139277 0.225248,0.225248 0.01863,0.02794 0.02131,0.06635 0.04505,0.0901 0.01062,0.01062 0.03162,-0.0067 0.04505,0 0.01899,0.0095 0.02605,0.03555 0.04505,0.04505 0.110955,0.05548 -0.04067,-0.130767 0.135149,0.04505 0.01062,0.01062 -0.01062,0.03443 0,0.04505 0.02124,0.02124 0.06886,-0.02124 0.0901,0 0.01062,0.01062 -0.0067,0.03162 0,0.04505 0.09374,0.187485 -0.0031,-0.04816 0.0901,0.04505 0.01062,0.01062 -0.01062,0.03443 0,0.04505 0.02124,0.02124 0.06886,-0.02124 0.0901,0 0.01062,0.01062 -0.01062,0.03443 0,0.04505 0.02124,0.02124 0.06886,-0.02124 0.0901,0 0.0149,0.0149 -0.0149,0.0752 0,0.0901 0.02124,0.02124 0.06324,-0.01343 0.0901,0 0.03799,0.019 0.05211,0.07111 0.0901,0.0901 0.01343,0.0067 0.03443,-0.01062 0.04505,0 0.01062,0.01062 -0.01062,0.03443 0,0.04505 0.01062,0.01062 0.03162,-0.0067 0.04505,0 0.01899,0.0095 0.02605,0.03555 0.04505,0.04505 0.01343,0.0067 0.03443,-0.01062 0.04505,0 0.01062,0.01062 -0.01062,0.03443 0,0.04505 0.02124,0.02124 0.06886,-0.02124 0.0901,0 0.01062,0.01062 -0.0067,0.03162 0,0.04505 0.09374,0.187485 -0.0031,-0.04816 0.0901,0.04505 0.01062,0.01062 -0.01062,0.03443 0,0.04505 0.02124,0.02124 0.06886,-0.02124 0.0901,0 0.01062,0.01062 -0.01062,0.03443 0,0.04505 0.02124,0.02124 0.06886,-0.02124 0.0901,0 0.01489,0.01489 -0.01489,0.07521 0,0.0901 0.02124,0.02124 0.06886,-0.02124 0.0901,0 0.02124,0.02124 -0.02124,0.06886 0,0.0901 0.01062,0.01062 0.03443,-0.01062 0.04505,0 0.01062,0.01062 -0.01062,0.03443 0,0.04505 0.01062,0.01062 0.03443,-0.01062 0.04505,0 0.01062,0.01062 -0.01062,0.03443 0,0.04505 0.01062,0.01062 0.03443,-0.01062 0.04505,0 0.01062,0.01062 -0.01062,0.03443 0,0.04505 0.01062,0.01062 0.03443,-0.01062 0.04505,0 0.01062,0.01062 -0.01062,0.03443 0,0.04505 0.01062,0.01062 0.03443,-0.01062 0.04505,0 0.01062,0.01062 -0.01062,0.03443 0,0.04505 0.01062,0.01062 0.03443,-0.01062 0.04505,0 0.0152,0.0152 -0.0152,0.0749 0,0.0901 0.01062,0.01062 0.03443,-0.01062 0.04505,0 0.01062,0.01062 -0.01062,0.03443 0,0.04505 0.06007,0.06007 0.04505,-0.07508 0.04505,0.04505"
       id="path3789"
       inkscape:connector-curvature="0" />
    <path
       style="fill:none;stroke:#000000;stroke-width:1px;stroke-linecap:butt;stroke-linejoin:miter;stroke-opacity:1"
       d="M 5.6311882,7.170297 C 5.5561057,7.0651814 5.4752925,6.9639319 5.4059406,6.8549504 5.2979912,6.6853156 5.3022565,6.6033914 5.2257426,6.4044554 5.184689,6.2977158 5.1316478,6.1958483 5.0905941,6.0891088 5.0565009,6.0004665 5.0402942,5.9050431 5.0004951,5.8188118 4.949761,5.708888 4.8652602,5.6158731 4.8202971,5.5034653 4.774308,5.3884927 4.7714109,5.259839 4.7301981,5.1430692 4.4993796,4.4890837 4.612573,4.984155 4.369802,4.3772276 4.3292009,4.2757249 4.3164719,4.164834 4.279703,4.0618811 4.2412388,3.9541813 4.1856082,3.8532741 4.1445545,3.7465345 4.0763681,3.5692498 4.0374124,3.3812747 3.9643565,3.2059405 3.8997836,3.0509655 3.7980589,2.9126454 3.7391089,2.7554454 3.6956296,2.6395005 3.6977887,2.5088664 3.6490099,2.3950494 3.6276821,2.3452843 3.5802388,2.3096659 3.5589109,2.2599009 3.5345216,2.2029923 3.5334405,2.1384402 3.5138614,2.0797028 c -0.010618,-0.031855 -0.036906,-0.057524 -0.04505,-0.090099 -0.00728,-0.029136 0.00728,-0.060963 0,-0.090099 -0.00814,-0.032575 -0.034431,-0.058244 -0.045049,-0.090099 -0.01802,-0.054059 0.01802,-0.1261386 0,-0.180198 -0.1087708,-0.3263123 0.012988,0.071025 -0.090099,-0.1351485 -0.00672,-0.013431 0.00672,-0.031618 0,-0.045049 -0.0095,-0.018995 -0.038334,-0.024903 -0.045049,-0.045049 -0.00893,-0.026791 0.010046,-0.2152019 0,-0.2252476 -0.010618,-0.010618 -0.034431,0.010618 -0.04505,0 -0.00204,-0.00204 0,-0.20400674 0,-0.22524749 0,-0.18019802 0,-0.36039604 0,-0.54059406 0,-0.0150165 0,-0.030033 0,-0.0450495 0,-0.0150165 -0.010618,-0.0344312 0,-0.0450495 0.010618,-0.0106183 0.034431,0.0106183 0.04505,0 0.00314,-0.003138 0,-0.32587752 0,-0.36039605"
       id="path3791"
       inkscape:connector-curvature="0" />
    <path
       style="fill:none;stroke:#000000;stroke-width:1px;stroke-linecap:butt;stroke-linejoin:miter;stroke-opacity:1"
       d="m 3.5138614,0.59306917 c 0,0.0750825 -0.012344,0.1511866 0,0.22524753 0.00349,0.0209476 0.03327,0.0273796 0.045049,0.0450495 0.069705,0.10455745 0.1006569,0.2092917 0.180198,0.3153465 0.012742,0.016989 0.035552,0.026055 0.045049,0.045049 0.042473,0.084946 0.041236,0.1888587 0.090099,0.2702971 0.021852,0.03642 0.071104,0.05211 0.090099,0.090099 0.027689,0.055378 0.014331,0.1264411 0.04505,0.180198 0.099632,0.099632 0.1625281,0.1448583 0.2252475,0.270297 0.3486364,0.6972728 -0.2253661,-0.2929996 0.270297,0.4504951 0.037251,0.055877 0.060066,0.120132 0.090099,0.180198 0.087495,0.1749907 0.1825544,0.3930472 0.3153466,0.5405941 0.064323,0.07147 0.1613672,0.1083327 0.2252475,0.180198 0.058172,0.065444 0.086579,0.1523928 0.1351485,0.2252475 0.099303,0.1489544 0.2666921,0.3348672 0.4054456,0.4504951 0.041594,0.034661 0.09287,0.056276 0.1351485,0.090099 0.033166,0.026533 0.05612,0.064615 0.090099,0.090099 0.026862,0.020147 0.066356,0.021306 0.090099,0.04505 0.023743,0.023743 0.021306,0.066356 0.04505,0.090099 0.010618,0.010618 0.030033,0 0.045049,0 0.030033,0.015016 0.066356,0.021306 0.090099,0.045049 0.093209,0.093209 -0.1424357,-0.00364 0.04505,0.090099 0.042473,0.021237 0.092675,0.023813 0.1351486,0.04505 0.057704,0.028852 0.1213913,0.1409936 0.180198,0.1801981 0.027939,0.018626 0.062161,0.026424 0.090099,0.045049 0.01767,0.01178 0.026055,0.035552 0.045049,0.04505 0.013431,0.00672 0.031618,-0.00672 0.04505,0 0.018994,0.0095 0.026055,0.035552 0.04505,0.04505 0.013431,0.00672 0.034431,-0.010618 0.04505,0 0.010618,0.010618 -0.010618,0.034431 0,0.04505 0.1137907,0.1137907 0.051932,0.017311 0.1351485,0.04505 0.031855,0.010618 0.057524,0.036906 0.090099,0.045049 0.029136,0.00728 0.063237,-0.013431 0.090099,0 0.013431,0.00672 -0.010618,0.034431 0,0.04505 0.022525,0.022525 0.1126238,-0.022525 0.1351486,0 0.010618,0.010618 -0.010618,0.034431 0,0.04505 0.021237,0.021236 0.063237,-0.013431 0.090099,0 0.054059,0.02703 0.081089,0.1081188 0.1351485,0.1351485 0.026862,0.013431 0.063237,-0.013431 0.090099,0 0.037989,0.018995 0.049805,0.076668 0.090099,0.090099 0.081089,0.02703 0.1892079,-0.02703 0.270297,0 0.020147,0.00672 0.030033,0.030033 0.04505,0.04505 0.030033,0.015016 0.057524,0.036906 0.090099,0.045049 0.029136,0.00728 0.063237,-0.013431 0.090099,0 0.013431,0.00672 -0.010618,0.034431 0,0.04505 0.010618,0.010618 0.030804,-0.00475 0.045049,0 0.031855,0.010618 0.058244,0.034431 0.090099,0.04505 0.014246,0.00475 0.031618,-0.00672 0.045049,0 0.018995,0.0095 0.030033,0.030033 0.04505,0.04505 0.015016,0.015016 0.035552,0.026055 0.045049,0.045049 0.00672,0.013431 -0.010618,0.034431 0,0.04505 0.022525,0.022525 0.1126238,-0.022525 0.1351485,0 0.010618,0.010618 -0.010618,0.034431 0,0.04505 0.023743,0.023743 0.062161,0.026424 0.090099,0.04505 0.01767,0.01178 0.026055,0.035552 0.04505,0.045049 0.026862,0.013431 0.068862,-0.021237 0.090099,0 0.010618,0.010618 0,0.030033 0,0.04505 0.015017,0.015017 0.02738,0.03327 0.04505,0.04505 0.030033,0.015016 0.060066,0.030033 0.090099,0.04505 0.015016,0 0.031618,-0.00672 0.045049,0 0.018994,0.0095 0.026055,0.035552 0.04505,0.04505 0.013431,0.00672 0.030033,0 0.045049,0 0.015016,0.015016 0.026055,0.035552 0.04505,0.045049 0.026862,0.013431 0.068862,-0.021236 0.090099,0 0.010618,0.010618 -0.010618,0.034431 0,0.04505 0.021237,0.021237 0.068862,-0.021236 0.090099,0 0.010618,0.010618 -0.010618,0.034431 0,0.04505 0.010618,0.010618 0.034431,-0.010618 0.04505,0 0.060066,0.060066 -0.075083,0.04505 0.045049,0.04505"
       id="path3793"
       inkscape:connector-curvature="0" />
    <path
       style="fill:none;stroke:#ff0000;stroke-width:1px;stroke-linecap:butt;stroke-linejoin:miter;stroke-opacity:1"
       d="m 12.028218,1.6292078 c 0,0.390429 0,0.7808581 0,1.1712871 0,0.025702 -0.0023,0.2679798 0,0.2702971 0.01062,0.010618 0.03443,-0.010618 0.04505,0 0.02083,0.020825 -0.0136,0.1079488 0,0.1351485 0.0095,0.018994 0.03555,0.026055 0.04505,0.045049 0.02309,0.046179 -0.01928,0.2124491 0,0.270297 0.01062,0.031855 0.03846,0.057173 0.04505,0.090099 0.004,0.019852 -0.01542,0.239451 0,0.2702971 0.0095,0.018994 0.03555,0.026055 0.04505,0.045049 0.01085,0.021709 0,0.1490424 0,0.180198"
       id="path3795"
       inkscape:connector-curvature="0" />
    <path
       style="fill:none;stroke:#ff0000;stroke-width:1px;stroke-linecap:butt;stroke-linejoin:miter;stroke-opacity:1"
       d="m 9.8658417,5.8638613 0.2252473,0.090099 c -0.05245,0.3525368 0.168067,0.032918 0.225248,0.090099 0.01062,0.010618 0,0.030033 0,0.04505 0,0.015016 -0.01062,0.034431 0,0.04505 0.02124,0.021237 0.06886,-0.021237 0.0901,0 0.01062,0.010618 -0.01062,0.034431 0,0.04505 0.01062,0.010618 0.03443,-0.010618 0.04505,0 0.01062,0.010618 -0.01062,0.034431 0,0.045049 0.04444,0.04444 0.0901,-0.09231 0.0901,0.04505"
       id="path3797"
       inkscape:connector-curvature="0" />
    <path
       style="fill:none;stroke:#00ff00;stroke-width:1px;stroke-linecap:butt;stroke-linejoin:miter;stroke-opacity:1"
       d="m 3.919307,0.09752461 c 0.019662,0.0786501 0.035545,0.19755847 0.090099,0.27029703 0.030033,0.030033 0.060066,0.060066 0.090099,0.090099 0.015017,0 0.034431,-0.0106183 0.04505,0 0.047486,0.0474864 0.055548,0.12261237 0.090099,0.18019802 0.027856,0.046427 0.065886,0.0867218 0.090099,0.13514852 0.00672,0.0134312 -0.00672,0.0316183 0,0.0450495 0.1102436,0.22048722 0.054493,0.0576414 0.180198,0.22524752 0.040294,0.053725 0.042613,0.1327117 0.090099,0.180198 0.010618,0.010618 0.034431,-0.010618 0.04505,0 0.047486,0.047486 0.052848,0.124321 0.090099,0.1801981 0.068997,0.1034952 0.025732,-0.019317 0.1351485,0.090099 0.065439,0.065439 0.032131,0.167279 0.04505,0.180198 0.010618,0.010618 0.031618,-0.00672 0.04505,0 0.1874852,0.093743 -0.048159,-0.00311 0.04505,0.090099 0.010618,0.010618 0.034431,-0.010618 0.04505,0 0.021236,0.021237 -0.021237,0.068863 0,0.090099 0.093209,0.093209 -0.00364,-0.1424357 0.090099,0.04505 0.013431,0.026862 -0.021236,0.068862 0,0.090099 0.010618,0.010618 0.034431,-0.010618 0.04505,0 0.010618,0.010618 -0.00672,0.031618 0,0.045049 0.0095,0.018995 0.035552,0.026055 0.04505,0.04505 0.00672,0.013431 -0.010618,0.034431 0,0.04505 0.010618,0.010618 0.034431,-0.010618 0.04505,0 0.020825,0.020825 -0.0136,0.1079488 0,0.1351485 0.025328,0.050657 0.1173608,0.081785 0.1351485,0.1351485 0.0095,0.028492 -0.0095,0.061607 0,0.090099 0.017788,0.053363 0.1098203,0.084492 0.1351486,0.1351485 0.013431,0.026862 -0.021237,0.068862 0,0.090099 0.010618,0.010618 0.034431,-0.010618 0.04505,0 0.093209,0.093209 -0.1424358,-0.00364 0.04505,0.090099 0.013431,0.00672 0.034431,-0.010618 0.045049,0 0.010618,0.010618 0,0.030033 0,0.04505 0,0.030033 -0.013431,0.063237 0,0.090099 0.013431,0.026862 0.068862,-0.021237 0.090099,0 0.021236,0.021237 -0.021237,0.068862 0,0.090099 0.010618,0.010618 0.034431,-0.010618 0.04505,0 0.010618,0.010618 -0.010618,0.034431 0,0.04505 0.010618,0.010618 0.034431,-0.010618 0.045049,0 0.010618,0.010618 -0.010618,0.034431 0,0.04505 0.010618,0.010618 0.034431,-0.010618 0.04505,0 0.010618,0.010618 -0.010618,0.034431 0,0.045049 0.021237,0.021237 0.068862,-0.021237 0.090099,0 0.010618,0.010618 -0.010618,0.034431 0,0.04505 0.010618,0.010618 0.034431,-0.010618 0.04505,0 0.022525,0.022525 -0.022525,0.1126237 0,0.1351485 0.010618,0.010618 0.030033,0 0.045049,0"
       id="path3799"
       inkscape:connector-curvature="0" />
    <path
       style="fill:none;stroke:#000000;stroke-width:1px;stroke-linecap:butt;stroke-linejoin:miter;stroke-opacity:1"
       d="m 4.7752476,3.791584 c 0,0.075083 -0.010618,0.1509197 0,0.2252476 0.014126,0.098882 0.1273386,0.1547684 0.180198,0.2252475 0.029908,0.039878 0.118968,0.2217556 0.1351485,0.270297 0.00475,0.014246 -0.00833,0.032555 0,0.04505 0.02356,0.03534 0.060066,0.060066 0.090099,0.090099 0.015016,0.04505 0.023813,0.092675 0.04505,0.1351485 0.027869,0.055738 0.1466723,0.1299093 0.180198,0.180198 0.00833,0.012494 -0.010618,0.034431 0,0.045049 0.023743,0.023743 0.062161,0.026424 0.090099,0.04505 0.1120578,0.074705 0.00518,0.010352 0.04505,0.090099 0.018994,0.037989 0.071104,0.05211 0.090099,0.090099 0.00672,0.013431 -0.00475,0.030804 0,0.04505 0.010618,0.031855 0.034431,0.058244 0.045049,0.090099 0.00475,0.014246 -0.00672,0.031618 0,0.045049 0.02703,0.054059 0.1081188,0.081089 0.1351485,0.1351486 0.013431,0.026862 -0.021237,0.068862 0,0.090099 0.010618,0.010618 0.031618,-0.00672 0.045049,0 0.1874852,0.093743 -0.048159,-0.00311 0.04505,0.090099 0.010618,0.010618 0.034431,-0.010618 0.04505,0 0.021236,0.021236 -0.013431,0.063237 0,0.090099 0.093743,0.1874852 -0.00311,-0.048159 0.090099,0.04505 0.010618,0.010618 -0.010618,0.034431 0,0.04505 0.010618,0.010618 0.034431,-0.010618 0.045049,0 0.021237,0.021236 -0.021236,0.068862 0,0.090099 0.010618,0.010618 0.031618,-0.00672 0.04505,0 0.099607,0.049804 0.01398,0.02796 0.04505,0.090099 0.093743,0.1874853 -0.00311,-0.048159 0.090099,0.04505 0.010618,0.010618 -0.00672,0.031618 0,0.04505 0.093743,0.1874853 -0.00311,-0.04816 0.090099,0.045049 0.060066,0.060066 -0.075083,0.04505 0.04505,0.04505"
       id="path3801"
       inkscape:connector-curvature="0" />
    <path
       style="fill:none;stroke:#000000;stroke-width:1px;stroke-linecap:butt;stroke-linejoin:miter;stroke-opacity:1"
       d="m 6.3069307,7.3054455 c 0,-0.3086944 -0.018994,-0.05917 0.04505,-0.3153466 0.00364,-0.014568 -0.00672,-0.031618 0,-0.045049 0.0095,-0.018995 0.03327,-0.02738 0.04505,-0.04505 0.1633175,-0.3266351 -0.047486,0.07123 0.090099,-0.1351485 0.1106646,-0.016063 0.018709,-0.095638 0.04505,-0.1351485 0.033526,-0.050289 0.1523289,-0.1244598 0.180198,-0.180198 0.013431,-0.026862 -0.021236,-0.068862 0,-0.090099 0.010618,-0.010618 0.031618,0.00672 0.04505,0 0.1874853,-0.093743 -0.048159,0.00311 0.04505,-0.090099 0.010618,-0.010618 0.034431,0.010618 0.04505,0 0.093209,-0.093209 -0.1424357,0.00364 0.045049,-0.090099 0.013431,-0.00672 0.034431,0.010618 0.04505,0 0.010618,-0.010618 -0.010618,-0.034431 0,-0.04505 0.010618,-0.010618 0.031618,0.00672 0.04505,0 0.018995,-0.0095 0.02738,-0.03327 0.04505,-0.04505 0.027939,-0.018626 0.066356,-0.021306 0.090099,-0.04505 0.010618,-0.010618 -0.013431,-0.038334 0,-0.04505 0.026862,-0.013431 0.06511,0.016659 0.090099,0 0.1318622,-0.087908 0.00923,-0.063508 0.045049,-0.1351485 0.02703,-0.054059 0.1081188,-0.081089 0.1351485,-0.1351485 0.00672,-0.013431 -0.010618,-0.034431 0,-0.04505 0.021236,-0.021237 0.068862,0.021236 0.090099,0 0.010618,-0.010618 -0.010618,-0.034431 0,-0.04505 0.010618,-0.010618 0.034431,0.010618 0.04505,0 0.010618,-0.010618 -0.010618,-0.034431 0,-0.04505 0.010618,-0.010618 0.030033,0 0.04505,0 0.015016,0 0.030033,0 0.04505,0"
       id="path3803"
       inkscape:connector-curvature="0" />
    <path
       style="fill:none;stroke:#000000;stroke-width:1px;stroke-linecap:butt;stroke-linejoin:miter;stroke-opacity:1"
       d="m 6.1267327,5.1430692 c 0.060066,0.030033 0.1178454,0.065158 0.180198,0.090099 0.027885,0.011154 0.063237,-0.013431 0.090099,0 0.054059,0.02703 0.081089,0.1081188 0.1351485,0.1351485 0.013431,0.00672 0.031618,-0.00672 0.04505,0 0.054059,0.02703 0.081089,0.1081188 0.1351485,0.1351486 0.013431,0.00672 0.034431,-0.010618 0.04505,0 0.010618,0.010618 0,0.030033 0,0.04505 0,0.015016 0,0.030033 0,0.045049"
       id="path3805"
       inkscape:connector-curvature="0" />
    <path
       style="fill:none;stroke:#000000;stroke-width:1px;stroke-linecap:butt;stroke-linejoin:miter;stroke-opacity:1"
       d="m 4.55,3.7465345 c 0.060066,0.045049 0.1177256,0.0935 0.1801981,0.1351486 0.027939,0.018626 0.062161,0.026424 0.090099,0.045049 0.086474,0.057649 0.1420426,0.1628438 0.2252475,0.2252475 0.026862,0.020147 0.058244,0.034431 0.090099,0.045049 0.014246,0.00475 0.034431,-0.010618 0.04505,0 0.05487,0.05487 0.021102,0.1006501 0.090099,0.1351485 0.013431,0.00672 0.034431,-0.010618 0.045049,0 0.010618,0.010618 0,0.030033 0,0.04505"
       id="path3807"
       inkscape:connector-curvature="0" />
    <path
       style="fill:none;stroke:#ff0000;stroke-width:1px;stroke-linecap:butt;stroke-linejoin:miter;stroke-opacity:1"
       d="m 10.90198,6.6747524 c 0.04505,0.075082 0.07909,0.1579817 0.135149,0.2252475 0.0215,0.025795 0.06636,0.021306 0.0901,0.04505 0.204453,0.3066795 -0.0177,0.021883 0.180198,0.180198 0.170943,0.1367543 0.325446,0.3537956 0.495544,0.4955446 0.04159,0.034661 0.09356,0.055438 0.135149,0.090099 0.0518,0.043163 0.308909,0.2917471 0.360396,0.3603961 0.02015,0.026862 0.0249,0.063237 0.04505,0.090099 0.0624,0.083205 0.167599,0.1387738 0.225248,0.2252475 0.01863,0.027939 0.02642,0.062161 0.04505,0.090099 0.01178,0.01767 0.03327,0.02738 0.04505,0.045049 0.01863,0.027939 0.02131,0.066356 0.04505,0.090099 0.01062,0.010618 0.03833,-0.013431 0.04505,0 0.01343,0.026862 -0.0095,0.061607 0,0.090099 0.0081,0.024229 0.172086,0.1693817 0.180198,0.1801981 0.04029,0.053725 0.05285,0.1243209 0.0901,0.180198 0.04621,0.069307 0.133993,0.1108911 0.180198,0.180198 0.01863,0.027938 0.02642,0.06216 0.04505,0.090099 0.01178,0.01767 0.03555,0.026055 0.04505,0.045049 0.0067,0.013431 -0.0047,0.030804 0,0.04505 0.04205,0.1261386 0.138152,0.2342574 0.180198,0.3603961 0.0095,0.028492 -0.01343,0.063237 0,0.090099 0.0095,0.018994 0.03327,0.02738 0.04505,0.045049 0.03725,0.055877 0.06886,0.1164887 0.0901,0.1801987 0.0095,0.02849 -0.0095,0.06161 0,0.0901 0.01062,0.03186 0.03443,0.05824 0.04505,0.0901 0.0085,0.02548 -0.01809,0.117055 0,0.135148 0.01062,0.01062 0.03443,-0.01062 0.04505,0 0.02252,0.02252 -0.02252,0.112624 0,0.135149 0.01062,0.01062 0.03443,-0.01062 0.04505,0 0.01953,0.01953 -0.01898,0.232338 0,0.270297 0.0095,0.01899 0.03555,0.02605 0.04505,0.04505 0.01343,0.02686 -0.02124,0.06886 0,0.0901 0.01062,0.01062 0.03443,-0.01062 0.04505,0 0.02124,0.02124 -0.02124,0.06886 0,0.0901 0.01062,0.01062 0.03443,-0.01062 0.04505,0 0.02124,0.02124 -0.01343,0.06324 0,0.0901 0.0498,0.09961 0.02796,0.01398 0.0901,0.04505 0.187485,0.09374 -0.04816,-0.0031 0.04505,0.0901 0.09321,0.09321 -0.0036,-0.142436 0.0901,0.04505 0.0067,0.01343 -0.01062,0.03443 0,0.04505 0.02374,0.02374 0.06216,0.02642 0.0901,0.04505 0.01767,0.01178 0.02738,0.03327 0.04505,0.04505 0.02794,0.01863 0.06636,0.02131 0.0901,0.04505 0.01062,0.01062 -0.01062,0.03443 0,0.04505 0.02374,0.02374 0.06636,0.02131 0.0901,0.04505 0.02374,0.02374 0.02131,0.06636 0.04505,0.0901 0.01062,0.01062 0.03443,-0.01062 0.04505,0 0.02124,0.02124 -0.02686,0.07667 0,0.0901 0.02686,0.01343 0.06324,-0.01343 0.0901,0 0.01343,0.0067 -0.01062,0.03443 0,0.04505 0.01062,0.01062 0.03443,-0.01062 0.04505,0 0.09321,0.09321 -0.142436,-0.0036 0.04505,0.0901 0.01343,0.0067 0.03443,-0.01062 0.04505,0 0.02374,0.02374 0.02131,0.06636 0.04505,0.0901 0.02374,0.02374 0.06216,0.02642 0.0901,0.04505 0.01767,0.01178 0.02605,0.03555 0.04505,0.04505 0.01343,0.0067 0.03443,-0.01062 0.04505,0 0.01062,0.01062 -0.01062,0.03443 0,0.04505 0.01062,0.01062 0.03443,-0.01062 0.04505,0 0.02124,0.02124 -0.02124,0.06886 0,0.0901 0.02124,0.02124 0.06886,-0.02124 0.0901,0 0.01062,0.01062 -0.01062,0.03443 0,0.04505 0.01062,0.01062 0.03443,-0.01062 0.04505,0 0.01062,0.01062 -0.01062,0.03443 0,0.04505 0.01062,0.01062 0.03443,-0.01062 0.04505,0 0.01062,0.01062 -0.01062,0.03443 0,0.04505 0.02252,0.02252 0.112624,-0.02252 0.135149,0 0.04444,0.04444 -0.09231,0.0901 0.04505,0.0901"
       id="path3809"
       inkscape:connector-curvature="0" />
  </g>
</svg>
